<svg width="48" height="48" viewBox="0 0 48 48" fill="none" xmlns="http://www.w3.org/2000/svg">
<g filter="url(#filter0_b_5741_1705)">
<path d="M22.1389 15.4633C22.6122 13.5122 25.3878 13.5122 25.8611 15.4633C25.9321 15.7564 26.0714 16.0286 26.2675 16.2578C26.4636 16.4869 26.711 16.6665 26.9896 16.7819C27.2682 16.8974 27.5702 16.9454 27.8709 16.9221C28.1716 16.8988 28.4625 16.8048 28.72 16.6478C30.4344 15.6033 32.3978 17.5656 31.3533 19.2811C31.1966 19.5385 31.1027 19.8293 31.0795 20.1297C31.0562 20.4302 31.1042 20.732 31.2195 21.0104C31.3348 21.2889 31.5142 21.5362 31.743 21.7323C31.9719 21.9284 32.2438 22.0677 32.5367 22.1389C34.4878 22.6122 34.4878 25.3878 32.5367 25.8611C32.2436 25.9321 31.9714 26.0714 31.7422 26.2675C31.5131 26.4636 31.3335 26.711 31.2181 26.9896C31.1026 27.2682 31.0546 27.5702 31.0779 27.8709C31.1012 28.1716 31.1952 28.4625 31.3522 28.72C32.3967 30.4344 30.4344 32.3978 28.7189 31.3533C28.4615 31.1966 28.1707 31.1027 27.8703 31.0795C27.5698 31.0562 27.268 31.1042 26.9896 31.2195C26.7111 31.3348 26.4638 31.5142 26.2677 31.743C26.0716 31.9719 25.9323 32.2438 25.8611 32.5367C25.3878 34.4878 22.6122 34.4878 22.1389 32.5367C22.0679 32.2436 21.9286 31.9714 21.7325 31.7422C21.5364 31.5131 21.289 31.3335 21.0104 31.2181C20.7318 31.1026 20.4298 31.0546 20.1291 31.0779C19.8284 31.1012 19.5375 31.1952 19.28 31.3522C17.5656 32.3967 15.6022 30.4344 16.6467 28.7189C16.8034 28.4615 16.8973 28.1707 16.9205 27.8703C16.9438 27.5698 16.8958 27.268 16.7805 26.9896C16.6652 26.7111 16.4858 26.4638 16.257 26.2677C16.0281 26.0716 15.7562 25.9323 15.4633 25.8611C13.5122 25.3878 13.5122 22.6122 15.4633 22.1389C15.7564 22.0679 16.0286 21.9286 16.2578 21.7325C16.4869 21.5364 16.6665 21.289 16.7819 21.0104C16.8974 20.7318 16.9454 20.4298 16.9221 20.1291C16.8988 19.8284 16.8048 19.5375 16.6478 19.28C15.6033 17.5656 17.5656 15.6022 19.2811 16.6467C20.3922 17.3222 21.8322 16.7244 22.1389 15.4633Z" stroke="black" stroke-linecap="round" stroke-linejoin="round"/>
<path d="M24 27C25.6569 27 27 25.6569 27 24C27 22.3431 25.6569 21 24 21C22.3431 21 21 22.3431 21 24C21 25.6569 22.3431 27 24 27Z" stroke="black" stroke-linecap="round" stroke-linejoin="round"/>
</g>
<defs>
<filter id="filter0_b_5741_1705" x="-4" y="-4" width="56" height="56" filterUnits="userSpaceOnUse" color-interpolation-filters="sRGB">
<feFlood flood-opacity="0" result="BackgroundImageFix"/>
<feGaussianBlur in="BackgroundImageFix" stdDeviation="2"/>
<feComposite in2="SourceAlpha" operator="in" result="effect1_backgroundBlur_5741_1705"/>
<feBlend mode="normal" in="SourceGraphic" in2="effect1_backgroundBlur_5741_1705" result="shape"/>
</filter>
</defs>
</svg>
