<svg width="24" height="24" viewBox="0 0 24 24" fill="none" xmlns="http://www.w3.org/2000/svg">
<path d="M5.5 6.5L14.5 6.5M5.5 9.5L12 9.5M5.5 12.5L11.5 12.5M19.8787 4.37868L22 6.5M19.8787 4.37868L14.2218 10.0355L13.8683 12.5104L16.3431 12.1569L22 6.5M19.8787 4.37868L20.2322 4.02513C20.818 3.43934 21.7678 3.43934 22.3536 4.02513C22.9393 4.61091 22.9393 5.56066 22.3536 6.14645L22 6.5M22 6.5L22 15.5C22 16.6046 21.1046 17.5 20 17.5L7.5 17.5L2 23L2 3C2 1.89543 2.89543 1 4 1L20 1C21.1046 1 22 1.89543 22 3L22 3.76246" stroke="#7E7E7E" stroke-linecap="round" stroke-linejoin="round"/>
</svg>
