<svg width="26" height="27" viewBox="0 0 26 27" fill="none" xmlns="http://www.w3.org/2000/svg">
<path d="M1 8.40001V24.5C1 25.3284 1.59696 26 2.33333 26H23.6667C24.4031 26 25 25.3284 25 24.5V8.40001M1 8.40001V3.5C1 2.67158 1.59696 2 2.33333 2H23.6667C24.4031 2 25 2.67158 25 3.5V8.40001M1 8.40001H25" stroke="black" stroke-linejoin="round"/>
<path d="M7 1V3" stroke="black" stroke-linecap="round" stroke-linejoin="round"/>
<path d="M19 1V3" stroke="black" stroke-linecap="round" stroke-linejoin="round"/>
<path d="M20 13H18" stroke="black" stroke-linecap="round" stroke-linejoin="round"/>
<path d="M20 21H18" stroke="black" stroke-linecap="round" stroke-linejoin="round"/>
<path d="M14 13H12" stroke="black" stroke-linecap="round" stroke-linejoin="round"/>
<path d="M14 21H12" stroke="black" stroke-linecap="round" stroke-linejoin="round"/>
<path d="M8 13H6" stroke="black" stroke-linecap="round" stroke-linejoin="round"/>
<path d="M8 21H6" stroke="black" stroke-linecap="round" stroke-linejoin="round"/>
<path d="M20 17H18" stroke="black" stroke-linecap="round" stroke-linejoin="round"/>
<path d="M14 17H12" stroke="black" stroke-linecap="round" stroke-linejoin="round"/>
<path d="M8 17H6" stroke="black" stroke-linecap="round" stroke-linejoin="round"/>
</svg>
