<svg width="23" height="24" viewBox="0 0 23 24" fill="none" xmlns="http://www.w3.org/2000/svg">
<path d="M4.5 6.5L13.5 6.5M4.5 9.5L11 9.5M4.5 12.5L10.5 12.5M18.8787 4.37868L21 6.5M18.8787 4.37868L13.2218 10.0355L12.8683 12.5104L15.3431 12.1569L21 6.5M18.8787 4.37868L19.2322 4.02513C19.818 3.43934 20.7678 3.43934 21.3536 4.02513C21.9393 4.61091 21.9393 5.56066 21.3536 6.14645L21 6.5M21 6.5L21 15.5C21 16.6046 20.1046 17.5 19 17.5L6.5 17.5L1 23L1 3C1 1.89543 1.89543 1 3 1L19 1C20.1046 1 21 1.89543 21 3L21 3.76246" stroke="#7E7E7E" stroke-linecap="round" stroke-linejoin="round"/>
</svg>
